# xmcd
#
# Track frame offsets:
#	150
#	22444
#	42258
#	65103
#	84827
#	106292
#	112209
#	134469
#	156777
#	176257
#	198029
#	219585
#	240507
#	259625
#
# Disc length: 3724 seconds
#
# Revision: 0
# Processed by: cddbd v1.4PL0 Copyright (c) Steve Scherf et al.
# Submitted via: dBpowerAMP V4.0
#
DISCID=c20e8a0e
DTITLE=SA Raj Kumar - Nuvvu Vasthavani - Raja
DYEAR=1900
DGENRE=Blues
TTITLE0=Nuvvu Vasthavani - Patala Pallakivai ( Duet )
TTITLE1=Nuvvu Vasthavani - Komma Komma
TTITLE2=Nuvvu Vasthavani - Kalalonaina
TTITLE3=Nuvvu Vasthavani - Meghamai
TTITLE4=Nuvvu Vasthavani - Railu Bandini
TTITLE5=Nuvvu Vasthavani - Neeve Devunive
TTITLE6=Nuvvu Vasthavani - Patala Pallakivai  II
TTITLE7=Raja - Edo Oka Ragam
TTITLE8=Raja - Kavvinchake Prema
TTITLE9=Raja - Mallela Vaana
TTITLE10=Raja - Shepu Choosi Mokku
TTITLE11=Raja - Kannula Logillo
TTITLE12=Raja - Pallavinchu Tholi Raagame
TTITLE13=Raja - Edo Oka Ragam II
EXTD=
EXTT0=
EXTT1=
EXTT2=
EXTT3=
EXTT4=
EXTT5=
EXTT6=
EXTT7=
EXTT8=
EXTT9=
EXTT10=
EXTT11=
EXTT12=
EXTT13=
PLAYORDER=
